<?xml version="1.0" encoding="UTF-8"?>
<svg id="Layer_2" data-name="Layer 2" xmlns="http://www.w3.org/2000/svg" xmlns:xlink="http://www.w3.org/1999/xlink" viewBox="0 0 1313.01 660.25">
  <defs>
    <style>
      .cls-1 {
        fill: url(#linear-gradient-8);
      }

      .cls-2 {
        fill: url(#linear-gradient-7);
      }

      .cls-3 {
        fill: url(#linear-gradient-5);
      }

      .cls-4 {
        fill: url(#linear-gradient-6);
      }

      .cls-5 {
        fill: url(#linear-gradient-9);
      }

      .cls-6 {
        fill: url(#linear-gradient-4);
      }

      .cls-7 {
        fill: url(#linear-gradient-3);
      }

      .cls-8 {
        fill: url(#linear-gradient-2);
      }

      .cls-9 {
        fill: url(#linear-gradient);
      }

      .cls-10 {
        fill: #fff;
      }

      .cls-11 {
        fill: url(#linear-gradient-10);
      }

      .cls-12 {
        fill: url(#linear-gradient-11);
      }

      .cls-13 {
        fill: url(#linear-gradient-12);
      }

      .cls-14 {
        fill: url(#linear-gradient-13);
      }

      .cls-15 {
        fill: url(#linear-gradient-14);
      }

      .cls-16 {
        fill: url(#linear-gradient-15);
      }

      .cls-17 {
        fill: url(#linear-gradient-16);
      }

      .cls-18 {
        fill: url(#linear-gradient-17);
      }

      .cls-19 {
        fill: url(#linear-gradient-18);
      }
    </style>
    <linearGradient id="linear-gradient" x1="190.39" y1="572.77" x2="143.01" y2="-199.35" gradientUnits="userSpaceOnUse">
      <stop offset="0" stop-color="#34302f"/>
      <stop offset=".23" stop-color="#5b5752"/>
      <stop offset="1" stop-color="#fff"/>
    </linearGradient>
    <linearGradient id="linear-gradient-2" x1="506.53" y1="553.36" x2="459.15" y2="-218.76" xlink:href="#linear-gradient"/>
    <linearGradient id="linear-gradient-3" x1="891.99" y1="529.71" x2="844.6" y2="-242.41" gradientUnits="userSpaceOnUse">
      <stop offset="0" stop-color="#070706"/>
      <stop offset=".29" stop-color="#1f231f"/>
      <stop offset="1" stop-color="#fff"/>
    </linearGradient>
    <linearGradient id="linear-gradient-4" x1="1161.53" y1="513.17" x2="1114.15" y2="-258.95" xlink:href="#linear-gradient-3"/>
    <linearGradient id="linear-gradient-5" x1="397.28" y1="451.02" x2="400.25" y2="595.17" gradientUnits="userSpaceOnUse">
      <stop offset="0" stop-color="#5b5652"/>
      <stop offset="1" stop-color="#fff"/>
    </linearGradient>
    <linearGradient id="linear-gradient-6" x1="452.49" y1="449.88" x2="455.46" y2="594.03" xlink:href="#linear-gradient-5"/>
    <linearGradient id="linear-gradient-7" x1="523.1" y1="448.42" x2="526.07" y2="592.58" xlink:href="#linear-gradient-5"/>
    <linearGradient id="linear-gradient-8" x1="569.18" y1="447.47" x2="572.15" y2="591.63" xlink:href="#linear-gradient-5"/>
    <linearGradient id="linear-gradient-9" x1="610.17" y1="446.63" x2="613.14" y2="590.78" xlink:href="#linear-gradient-5"/>
    <linearGradient id="linear-gradient-10" x1="468.15" y1="449.55" x2="471.12" y2="593.71" xlink:href="#linear-gradient-5"/>
    <linearGradient id="linear-gradient-11" x1="463.46" y1="449.66" x2="466.43" y2="593.82" xlink:href="#linear-gradient-5"/>
    <linearGradient id="linear-gradient-12" x1="460.31" y1="449.72" x2="463.28" y2="593.88" xlink:href="#linear-gradient-5"/>
    <linearGradient id="linear-gradient-13" x1="456.1" y1="449.81" x2="459.07" y2="593.96" xlink:href="#linear-gradient-5"/>
    <linearGradient id="linear-gradient-14" x1="460.15" y1="449.72" x2="463.13" y2="593.87" xlink:href="#linear-gradient-5"/>
    <linearGradient id="linear-gradient-15" x1="466.53" y1="449.59" x2="469.51" y2="593.74" xlink:href="#linear-gradient-5"/>
    <linearGradient id="linear-gradient-16" x1="506.15" y1="448.77" x2="509.12" y2="592.93" xlink:href="#linear-gradient-5"/>
    <linearGradient id="linear-gradient-17" x1="575.71" y1="447.34" x2="578.68" y2="591.49" xlink:href="#linear-gradient-5"/>
    <linearGradient id="linear-gradient-18" x1="466.8" y1="449.58" x2="469.77" y2="593.74" xlink:href="#linear-gradient-5"/>
  </defs>
  <g id="Layer_1-2" data-name="Layer 1">
    <g>
      <g>
        <path d="M63.41,625.49h3.64v34.47h-3.64v-34.47Z"/>
        <path d="M122.84,625.49v34.47h-3l-22.16-27.97v27.97h-3.64v-34.47h3l22.21,27.97v-27.97h3.59Z"/>
        <path d="M149.83,625.49h14.03c3.65,0,6.86.73,9.65,2.19,2.79,1.46,4.96,3.5,6.5,6.11,1.54,2.61,2.31,5.59,2.31,8.94s-.77,6.33-2.31,8.94c-1.55,2.61-3.71,4.65-6.5,6.11-2.79,1.46-6.01,2.19-9.65,2.19h-14.03v-34.47ZM163.67,656.81c3.02,0,5.66-.6,7.93-1.8,2.27-1.2,4.02-2.86,5.27-4.97,1.25-2.12,1.87-4.55,1.87-7.31s-.63-5.2-1.87-7.31c-1.25-2.12-3-3.78-5.27-4.97-2.27-1.2-4.91-1.8-7.93-1.8h-10.19v28.17h10.19Z"/>
        <path d="M206.26,625.49h3.64v34.47h-3.64v-34.47Z"/>
        <path d="M258.51,650.75h-19.21l-4.14,9.21h-3.79l15.76-34.47h3.59l15.76,34.47h-3.84l-4.14-9.21ZM257.18,647.79l-8.27-18.52-8.27,18.52h16.54Z"/>
        <path d="M316.76,625.49v34.47h-3.01l-22.16-27.97v27.97h-3.64v-34.47h3l22.21,27.97v-27.97h3.6Z"/>
        <path d="M425.34,642.72h3.5v13.15c-1.61,1.41-3.52,2.49-5.71,3.25-2.2.75-4.52,1.13-6.95,1.13-3.45,0-6.55-.76-9.3-2.27-2.76-1.51-4.93-3.6-6.5-6.28-1.57-2.68-2.37-5.67-2.37-8.99s.79-6.31,2.37-8.99c1.58-2.68,3.74-4.77,6.5-6.28,2.75-1.51,5.87-2.26,9.35-2.26,2.63,0,5.04.42,7.24,1.26,2.19.83,4.05,2.08,5.56,3.72l-2.27,2.32c-2.73-2.69-6.19-4.04-10.39-4.04-2.79,0-5.32.61-7.56,1.85-2.25,1.23-4.01,2.94-5.29,5.12-1.28,2.18-1.92,4.62-1.92,7.31s.64,5.12,1.92,7.29c1.28,2.17,3.04,3.87,5.27,5.12,2.23,1.25,4.74,1.87,7.53,1.87,3.55,0,6.55-.88,9.01-2.66v-11.62Z"/>
        <path d="M479.26,656.81v3.15h-24.37v-34.47h23.64v3.15h-20v12.26h17.83v3.1h-17.83v12.8h20.73Z"/>
        <path d="M532.4,625.49v34.47h-3.01l-22.15-27.97v27.97h-3.65v-34.47h3.01l22.21,27.97v-27.97h3.6Z"/>
        <path d="M583.76,656.81v3.15h-24.37v-34.47h23.64v3.15h-20v12.26h17.83v3.1h-17.83v12.8h20.73Z"/>
        <path d="M631.63,659.96l-7.88-11.08c-.88.1-1.81.15-2.75.15h-9.26v10.93h-3.65v-34.47h12.9c4.4,0,7.85,1.05,10.34,3.15,2.5,2.1,3.75,4.99,3.75,8.67,0,2.69-.68,4.96-2.04,6.82-1.37,1.86-3.31,3.19-5.84,4.01l8.42,11.82h-3.98ZM628.72,643.66c1.81-1.51,2.7-3.63,2.7-6.35s-.9-4.94-2.7-6.43c-1.81-1.49-4.42-2.24-7.83-2.24h-9.16v17.29h9.16c3.42,0,6.03-.76,7.83-2.27Z"/>
        <path d="M681.06,650.75h-19.21l-4.14,9.21h-3.8l15.76-34.47h3.6l15.76,34.47h-3.84l-4.14-9.21ZM679.73,647.79l-8.27-18.52-8.28,18.52h16.55Z"/>
        <path d="M710.51,625.49h3.64v31.32h19.31v3.15h-22.95v-34.47Z"/>
        <path d="M836.97,656.81v3.15h-24.38v-34.47h23.64v3.15h-19.99v12.26h17.82v3.1h-17.82v12.8h20.73Z"/>
        <path d="M861.29,625.49h3.64v31.32h19.31v3.15h-22.95v-34.47Z"/>
        <path d="M930.43,656.81v3.15h-24.37v-34.47h23.64v3.15h-20v12.26h17.83v3.1h-17.83v12.8h20.73Z"/>
        <path d="M960.29,657.99c-2.74-1.51-4.89-3.6-6.45-6.28-1.55-2.68-2.34-5.67-2.34-8.99s.78-6.31,2.34-8.99c1.56-2.68,3.72-4.77,6.48-6.28,2.75-1.51,5.84-2.26,9.26-2.26,2.56,0,4.92.42,7.09,1.28,2.16.86,4,2.1,5.51,3.74l-2.31,2.32c-2.7-2.73-6.09-4.09-10.2-4.09-2.72,0-5.2.63-7.43,1.87-2.24,1.25-3.98,2.96-5.24,5.12-1.27,2.17-1.9,4.6-1.9,7.29s.63,5.12,1.9,7.29c1.26,2.17,3.01,3.87,5.24,5.12,2.23,1.25,4.71,1.87,7.43,1.87,4.14,0,7.54-1.38,10.2-4.14l2.31,2.32c-1.51,1.64-3.35,2.9-5.54,3.77-2.18.87-4.55,1.31-7.11,1.31-3.42,0-6.5-.76-9.24-2.27Z"/>
        <path d="M1011.97,628.64h-12.11v-3.15h27.87v3.15h-12.11v31.32h-3.65v-31.32Z"/>
        <path d="M1049.31,625.49h3.64v34.47h-3.64v-34.47Z"/>
        <path d="M1085.72,657.96c-2.78-1.53-4.94-3.62-6.5-6.28-1.55-2.66-2.34-5.65-2.34-8.96s.78-6.3,2.34-8.96c1.56-2.66,3.73-4.75,6.5-6.28,2.78-1.53,5.87-2.29,9.29-2.29s6.49.76,9.23,2.26c2.74,1.51,4.9,3.6,6.47,6.28,1.58,2.68,2.37,5.67,2.37,8.99s-.79,6.31-2.37,8.99c-1.57,2.68-3.73,4.77-6.47,6.28-2.74,1.51-5.82,2.27-9.23,2.27s-6.51-.76-9.29-2.29ZM1102.38,655.16c2.2-1.23,3.93-2.94,5.17-5.12,1.25-2.18,1.87-4.62,1.87-7.31s-.62-5.13-1.87-7.31c-1.24-2.18-2.97-3.89-5.17-5.12-2.19-1.23-4.66-1.85-7.38-1.85s-5.2.61-7.42,1.85c-2.22,1.23-3.96,2.94-5.21,5.12-1.27,2.18-1.9,4.62-1.9,7.31s.63,5.13,1.9,7.31c1.26,2.18,3,3.89,5.21,5.12,2.22,1.23,4.69,1.85,7.42,1.85s5.19-.62,7.38-1.85Z"/>
        <path d="M1165.81,625.49v34.47h-3.01l-22.16-27.97v27.97h-3.64v-34.47h3l22.21,27.97v-27.97h3.6Z"/>
      </g>
      <g>
        <path class="cls-9" d="M0,13.36h98.2l5.26,384.57L225.93,13.36h102.32l-193.51,556.25H18.01L0,13.36Z"/>
        <path class="cls-8" d="M326.29,530.81c-20.31-30.9-25.73-76.33-16.26-136.31l32.72-207.39c9.46-59.97,29.16-105.07,59.11-135.29,29.94-30.22,74.45-45.33,133.51-45.33s98.2,15.23,118.81,45.67c20.61,30.45,26.22,75.43,16.83,134.94l-32.83,208.07c-9.39,59.52-29.23,104.73-59.51,135.63-30.28,30.91-74.73,46.35-133.32,46.35s-98.75-15.45-119.04-46.35Z"/>
        <path class="cls-7" d="M808.79,97.14h-85.84l13.22-83.78h284.3l-13.22,83.78h-84.47l-74.54,472.47h-114l74.54-472.47Z"/>
        <path class="cls-6" d="M1070.6,13.36h242.42l-12.35,78.29h-129.79l-23.29,147.65h100.26l-12.46,78.97h-100.26l-27.52,174.43h131.16l-12.13,76.91h-243.78L1070.6,13.36Z"/>
      </g>
      <g>
        <path class="cls-10" d="M442.14,602.91c2.6-15.58,5.19-72.69,5.19-80.48s-42.4-56.25-47.59-70.09c-5.19-13.85-27.69-70.09-32.88-77.02-5.19-6.92-22.5-40.67-22.5-50.19s17.31-34.61,41.54-50.19c24.23-15.58,36.35-26.83,36.35-26.83,0,0-3.46-64.04-2.6-79.61.86-15.58,10.38-65.77,10.38-83.08s8.65-70.09,18.17-76.15c9.52-6.06,26.33-6.45,32.64,25.33,6.31,31.78-4.08,70.72.25,91.49,4.33,20.77,4.33,57.11,6.06,77.02,1.73,19.9,2.6,43.27,2.6,43.27,0,0,13.85-16.44,33.75-16.44s21.63,22.5,21.63,22.5c0,0,6.92-8.65,22.5-7.79,15.58.87,17.31,4.33,17.31,26.83,0,0,17.31-9.09,33.32,8.22,16.01,17.31,8.65,58.41,8.65,70.96s-10.82,68.8-17.31,89.57c-6.49,20.77-10.82,40.67-9.95,58.41.87,17.74,8.65,104.71,8.65,104.71l-166.15-.43Z"/>
        <g>
          <path class="cls-3" d="M445.54,600.43c-.07,0-.13,0-.2-.01-2.63-.21-4.59-2.52-4.38-5.15.19-2.36.46-5.32.77-8.7,1.63-17.77,4.66-50.86,1.13-62.44-2.76-9.05-15.71-24.81-26.13-37.48-5.17-6.29-10.05-12.23-13.2-16.74-9.63-13.81-28.2-58.69-32.55-73.22-1.78-5.93-6.47-14.25-11.43-23.06-5.94-10.54-12.67-22.49-16.03-33.32-6.47-20.89-6.36-33.47,11.78-48.44,7.39-6.1,19.94-15.3,32.07-24.21,14-10.27,29.86-21.91,32.76-25.25,1.73-1.99,4.75-2.21,6.74-.47,1.99,1.73,2.21,4.75.47,6.75-3.36,3.86-15.21,12.66-34.32,26.69-12.03,8.82-24.46,17.95-31.64,23.88-14.13,11.65-14.57,19.39-8.73,38.23,3.05,9.86,9.52,21.34,15.23,31.46,5.24,9.29,10.18,18.06,12.26,25.02,4.24,14.15,22.39,57.81,31.23,70.49,2.93,4.2,7.69,10,12.74,16.13,11.52,14.01,24.58,29.89,27.89,40.76,3.76,12.35,1.69,39.42-.76,66.1-.31,3.34-.57,6.27-.76,8.59-.21,2.57-2.4,4.5-4.95,4.4Z"/>
          <path class="cls-4" d="M407.62,348.76c-.7-.03-1.41-.21-2.07-.56-2.33-1.25-3.2-4.15-1.95-6.48,7.32-13.64,13.79-48.34,15.05-80.71.73-18.83-.58-41.63-1.63-59.94-.69-12.06-1.29-22.48-1.12-28.76.22-8.05,2.1-18.6,4.09-29.78,1.94-10.9,3.95-22.17,4.5-31.65.19-3.24.37-6.94.57-10.96,1.03-20.51,2.43-48.59,6.62-65.17,4.48-17.75,12.33-37.71,33.62-34.39,24.67,3.84,24.74,40.11,22.66,67.05-2.94,37.88-3.15,50.36.83,72.45,2.55,14.17,2.58,25,2.6,35.47.02,6.34.03,12.34.62,18.78.62,6.79.85,17.64,1.09,29.14.39,18.37.83,39.18,2.9,48.56.57,2.58-1.06,5.13-3.64,5.7-2.57.57-5.13-1.06-5.7-3.64-2.27-10.3-2.73-31.61-3.13-50.42-.24-11.32-.47-22.02-1.06-28.47-.62-6.87-.64-13.07-.66-19.63-.03-10.06-.05-20.46-2.45-33.8-4.16-23.16-3.96-36.02-.95-74.88,2.81-36.29-1.96-54.89-14.6-56.86-7.99-1.22-16.29,1.2-22.88,27.28-3.95,15.66-5.33,43.2-6.34,63.31-.2,4.04-.39,7.77-.58,11.03-.58,10.04-2.64,21.59-4.63,32.77-1.93,10.81-3.75,21.03-3.94,28.36-.16,5.88.43,16.11,1.11,27.96,1.06,18.52,2.38,41.57,1.63,60.86-1.14,29.32-7.07,67.88-16.18,84.86-.89,1.66-2.63,2.58-4.4,2.52Z"/>
          <path class="cls-2" d="M548.63,316.3c-.14,0-.28-.02-.42-.03-2.62-.33-4.47-2.72-4.15-5.34.02-.13,1.51-12.73-1.04-40.33-1.29-14.02-4.64-24.38-10.22-31.68-2.59-3.39-4.54-4.74-7.19-5-6.62-.67-12.68.45-18.01,3.24-5.96,3.11-10.79,8.19-13.6,14.29-1.11,2.4-3.94,3.44-6.35,2.34-2.4-1.11-3.44-3.95-2.34-6.34,3.7-8.01,10.04-14.67,17.86-18.76,6.9-3.61,14.98-5.1,23.36-4.28,6.9.67,11.04,5.01,13.87,8.71,6.71,8.77,10.68,20.75,12.15,36.61,2.66,28.84,1.07,41.87,1,42.41-.32,2.48-2.47,4.26-4.92,4.17Z"/>
          <path class="cls-1" d="M586.67,313.56c-2.17-.08-4.08-1.65-4.5-3.87-.08-.42-1.97-10.48-1.33-26.96.07-1.76.16-3.57.26-5.41.5-9.31,1.12-20.89-2.85-25.23-.76-.83-2.12-1.94-5.26-2.07-14.46-.56-26.17,6.06-26.29,6.13-2.29,1.31-5.21.53-6.53-1.75-1.32-2.28-.54-5.2,1.74-6.52.57-.33,14.14-8.08,31.45-7.41,4.97.19,9,1.94,11.95,5.18,6.66,7.3,5.98,19.95,5.33,32.19-.1,1.79-.19,3.56-.26,5.27-.6,15.29,1.15,24.7,1.17,24.79.49,2.59-1.21,5.1-3.8,5.59-.37.07-.73.09-1.09.08Z"/>
          <path class="cls-5" d="M607.2,606.71c-2.33-.09-4.3-1.87-4.56-4.25-.4-3.62-9.74-89.02-7.83-115,2.01-27.36,9.03-48.1,16.67-68.67,6.61-17.81,8.77-51.11,10.21-73.15.24-3.76.47-7.26.7-10.37,3.14-43.04-4.95-55.01-10.04-58.32-11.31-7.32-23.44-1.17-23.95-.9-2.33,1.21-5.22.32-6.45-2.01-1.22-2.33-.35-5.21,1.98-6.44.71-.38,17.52-9.1,33.62,1.33,12.38,8.02,17.09,29.95,14.38,67.04-.23,3.09-.45,6.56-.69,10.3-1.56,23.95-3.69,56.74-10.78,75.86-7.39,19.9-14.18,39.93-16.09,66.04-1.84,25.12,7.7,112.38,7.8,113.26.29,2.63-1.6,4.99-4.23,5.27-.24.03-.48.04-.72.03Z"/>
          <path class="cls-11" d="M453.97,51.15c-8.12-.32-13.64-1.46-14.85-5.24-1.76-5.5.11-18.45,2.81-24.8h0c3-7.05,7.25-11.56,12.63-13.39,4.86-1.66,10.62-.95,15.79,1.95,7.82,4.38,10.72,18.63,10.48,24.94-.33,8.54-4.32,17.02-12.48,16.7-1.5-.06-3.44-.05-5.58-.04-3.17,0-6.13,0-8.8-.11ZM446.34,22.98c-2.49,5.85-3.93,17.49-2.65,21.47,1.35,2.08,14.23,2.04,19.07,2.02,2.22,0,4.23-.01,5.78.05,6.95.27,7.5-11.6,7.52-12.11.21-5.34-2.44-17.44-8.04-20.58-1.89-1.06-6.82-3.33-11.91-1.6-4.04,1.38-7.33,4.99-9.78,10.74h0Z"/>
          <path class="cls-12" d="M444.78,87.93c-.73-.03-1.44-.39-1.88-1.04-.75-1.09-.47-2.58.62-3.32.37-.25,9.31-6.25,23.8-4.04,1.31.2,2.2,1.42,2,2.72-.2,1.31-1.44,2.2-2.72,2.01-12.67-1.92-20.3,3.2-20.38,3.26-.44.3-.95.44-1.44.42Z"/>
          <path class="cls-13" d="M440.14,149.52c-.84-.03-1.64-.51-2.04-1.31-.6-1.17-.13-2.61,1.05-3.21.55-.28,13.67-6.83,29.35-2.45,1.27.35,2.02,1.67,1.66,2.94-.36,1.27-1.68,2.01-2.94,1.66-13.83-3.85-25.78,2.05-25.9,2.11-.38.19-.78.27-1.17.25Z"/>
          <path class="cls-14" d="M442.39,162.97c-.84-.03-1.63-.5-2.04-1.3-.6-1.17-.14-2.61,1.03-3.21.27-.14,6.79-3.43,16.64-2.28,1.31.15,2.25,1.34,2.1,2.65-.15,1.31-1.3,2.24-2.65,2.1-8.3-.99-13.84,1.76-13.9,1.79-.38.19-.78.27-1.17.26Z"/>
          <path class="cls-15" d="M443.98,177.19c-.63-.02-1.24-.29-1.69-.79-.87-.98-.8-2.47.16-3.35.29-.27,7.34-6.49,22.64-4.7,1.31.15,2.25,1.34,2.1,2.65-.15,1.31-1.34,2.25-2.65,2.1-12.96-1.51-18.82,3.45-18.88,3.5-.48.42-1.09.62-1.68.6Z"/>
          <path class="cls-16" d="M475.66,433.35c-1.14-.04-2.12-.91-2.28-2.08-.4-3.04-.86-7.11-1.41-11.84-2.6-22.69-6.96-60.66-13.5-72.02-8.53-14.83-7.48-18.61-3.02-34.5l.24-.87c.36-1.27,1.69-2.01,2.95-1.66,1.27.36,2.01,1.68,1.66,2.95l-.24.87c-4.31,15.37-4.97,17.73,2.56,30.82,7.03,12.22,11.46,50.8,14.11,73.86.54,4.7,1,8.74,1.4,11.76.17,1.31-.75,2.51-2.06,2.68-.14.02-.27.02-.41.02Z"/>
          <path class="cls-17" d="M503.97,392.19c-1.1-.04-2.06-.84-2.26-1.97-3.74-21.03,1.56-45.48,1.79-46.51.29-1.29,1.56-2.1,2.85-1.82,1.29.29,2.1,1.56,1.82,2.85-.05.24-5.32,24.56-1.75,44.64.23,1.3-.63,2.54-1.93,2.77-.17.03-.35.04-.51.04Z"/>
          <path class="cls-18" d="M564.61,417.09c-1.18-.05-2.18-.97-2.28-2.18-.09-.98-2.07-24.12,4.31-40.37,1.46-3.7,3-7.4,4.53-11.05,5-11.95,9.72-23.24,10.28-32.34.08-1.32,1.12-2.3,2.53-2.24,1.32.08,2.32,1.21,2.24,2.53-.6,9.91-5.48,21.56-10.64,33.9-1.51,3.62-3.05,7.28-4.49,10.95-5.98,15.21-4.02,37.97-4,38.2.12,1.31-.85,2.48-2.17,2.6-.1,0-.21.01-.31,0Z"/>
          <path class="cls-19" d="M463.97,57.4c.02-17.35-1.7-14.89-.31-25.92.58-4.59-6.61-4.84-7.19-.28-3.39,26.87-5.28,33.25.33,36.27,2.19,1.18,4.83.52,6.19-1.56,1.51-2.33.98-5.87.98-8.51Z"/>
        </g>
      </g>
    </g>
  </g>
</svg>