<?xml version="1.0" encoding="UTF-8"?>
<svg xmlns="http://www.w3.org/2000/svg" xmlns:xlink="http://www.w3.org/1999/xlink" viewBox="0 0 156.61 208.79">
  <defs>
    <style>
      .cls-1 {
        fill: url(#linear-gradient-8);
      }

      .cls-2 {
        fill: url(#linear-gradient-7);
      }

      .cls-3 {
        fill: url(#linear-gradient-5);
      }

      .cls-4 {
        fill: url(#linear-gradient-6);
      }

      .cls-5 {
        fill: url(#linear-gradient-9);
      }

      .cls-6 {
        fill: url(#linear-gradient-4);
      }

      .cls-7 {
        fill: url(#linear-gradient-3);
      }

      .cls-8 {
        fill: url(#linear-gradient-2);
      }

      .cls-9 {
        fill: #003567;
      }

      .cls-10 {
        fill: url(#linear-gradient);
      }

      .cls-11 {
        isolation: isolate;
      }

      .cls-12 {
        mix-blend-mode: multiply;
      }

      .cls-13 {
        fill: url(#linear-gradient-10);
      }

      .cls-14 {
        fill: url(#linear-gradient-11);
      }

      .cls-15 {
        fill: url(#linear-gradient-12);
      }

      .cls-16 {
        fill: url(#linear-gradient-13);
      }

      .cls-17 {
        fill: url(#linear-gradient-19);
      }

      .cls-18 {
        fill: url(#linear-gradient-14);
      }

      .cls-19 {
        fill: url(#linear-gradient-21);
      }

      .cls-20 {
        fill: url(#linear-gradient-20);
      }

      .cls-21 {
        fill: url(#linear-gradient-15);
      }

      .cls-22 {
        fill: url(#linear-gradient-16);
      }

      .cls-23 {
        fill: url(#linear-gradient-17);
      }

      .cls-24 {
        fill: url(#linear-gradient-18);
      }

      .cls-25 {
        fill: #05800e;
      }

      .cls-26 {
        fill: #ff7300;
      }
    </style>
    <linearGradient id="linear-gradient" x1="102.74" y1="74.41" x2="102.74" y2="140.53" gradientUnits="userSpaceOnUse">
      <stop offset=".05" stop-color="#0068ce"/>
      <stop offset=".09" stop-color="#1172d1"/>
      <stop offset=".24" stop-color="#4f97dd"/>
      <stop offset=".38" stop-color="#85b6e7"/>
      <stop offset=".52" stop-color="#b0d0ef"/>
      <stop offset=".66" stop-color="#d2e4f6"/>
      <stop offset=".79" stop-color="#ebf3fb"/>
      <stop offset=".9" stop-color="#f9fbfe"/>
      <stop offset="1" stop-color="#fff"/>
    </linearGradient>
    <linearGradient id="linear-gradient-2" x1="51.12" y1="74.41" x2="51.12" y2="140.53" xlink:href="#linear-gradient"/>
    <linearGradient id="linear-gradient-3" x1="61.16" y1="74.41" x2="61.16" y2="140.53" xlink:href="#linear-gradient"/>
    <linearGradient id="linear-gradient-4" x1="73.84" y1="74.41" x2="73.84" y2="140.53" xlink:href="#linear-gradient"/>
    <linearGradient id="linear-gradient-5" x1="86.52" y1="74.41" x2="86.52" y2="140.53" xlink:href="#linear-gradient"/>
    <linearGradient id="linear-gradient-6" x1="99.2" y1="74.41" x2="99.2" y2="140.53" xlink:href="#linear-gradient"/>
    <linearGradient id="linear-gradient-7" x1="61.92" y1="74.41" x2="61.92" y2="140.53" xlink:href="#linear-gradient"/>
    <linearGradient id="linear-gradient-8" x1="44.76" y1="139.86" x2="44.76" y2="196.43" gradientUnits="userSpaceOnUse">
      <stop offset=".05" stop-color="#ff7300"/>
      <stop offset=".08" stop-color="#ff7803"/>
      <stop offset=".31" stop-color="#ffac23"/>
      <stop offset=".43" stop-color="#ffc030"/>
      <stop offset=".48" stop-color="#ffc950"/>
      <stop offset=".58" stop-color="#ffd985"/>
      <stop offset=".68" stop-color="#ffe7b0"/>
      <stop offset=".77" stop-color="#fff1d2"/>
      <stop offset=".85" stop-color="#fff8eb"/>
      <stop offset=".93" stop-color="#fffdf9"/>
      <stop offset="1" stop-color="#fff"/>
    </linearGradient>
    <linearGradient id="linear-gradient-9" x1="7.63" y1="139.86" x2="7.63" y2="196.43" xlink:href="#linear-gradient-8"/>
    <linearGradient id="linear-gradient-10" x1="14.85" y1="139.86" x2="14.85" y2="196.43" xlink:href="#linear-gradient-8"/>
    <linearGradient id="linear-gradient-11" x1="23.97" y1="139.86" x2="23.97" y2="196.43" xlink:href="#linear-gradient-8"/>
    <linearGradient id="linear-gradient-12" x1="33.09" y1="139.86" x2="33.09" y2="196.43" xlink:href="#linear-gradient-8"/>
    <linearGradient id="linear-gradient-13" x1="42.21" y1="139.86" x2="42.21" y2="196.43" xlink:href="#linear-gradient-8"/>
    <linearGradient id="linear-gradient-14" x1="15.4" y1="139.86" x2="15.4" y2="196.43" xlink:href="#linear-gradient-8"/>
    <linearGradient id="linear-gradient-15" x1="153.35" y1="144.17" x2="153.35" y2="195.39" gradientUnits="userSpaceOnUse">
      <stop offset=".05" stop-color="#158c00"/>
      <stop offset=".21" stop-color="#50a400"/>
      <stop offset=".36" stop-color="#83b900"/>
      <stop offset=".43" stop-color="#98c200"/>
      <stop offset=".45" stop-color="#9fc611"/>
      <stop offset=".54" stop-color="#b8d54f"/>
      <stop offset=".63" stop-color="#cde185"/>
      <stop offset=".71" stop-color="#dfecb0"/>
      <stop offset=".79" stop-color="#edf4d2"/>
      <stop offset=".87" stop-color="#f7faeb"/>
      <stop offset=".94" stop-color="#fcfdf9"/>
      <stop offset="1" stop-color="#fff"/>
    </linearGradient>
    <linearGradient id="linear-gradient-16" x1="116.23" y1="144.17" x2="116.23" y2="195.39" xlink:href="#linear-gradient-15"/>
    <linearGradient id="linear-gradient-17" x1="123.45" y1="144.18" x2="123.45" y2="195.39" xlink:href="#linear-gradient-15"/>
    <linearGradient id="linear-gradient-18" x1="132.57" y1="144.17" x2="132.57" y2="195.39" xlink:href="#linear-gradient-15"/>
    <linearGradient id="linear-gradient-19" x1="141.69" y1="144.17" x2="141.69" y2="195.39" xlink:href="#linear-gradient-15"/>
    <linearGradient id="linear-gradient-20" x1="150.81" y1="144.17" x2="150.81" y2="195.39" xlink:href="#linear-gradient-15"/>
    <linearGradient id="linear-gradient-21" x1="123.99" y1="144.17" x2="123.99" y2="195.39" xlink:href="#linear-gradient-15"/>
  </defs>
  <g class="cls-11">
    <g id="Layer_2" data-name="Layer 2">
      <g id="Layer_1-2" data-name="Layer 1">
        <g>
          <g class="cls-12">
            <g>
              <g>
                <path class="cls-10" d="M101.67,154.47v-69.48c1.8-1.37,5.6-5.16,5.6-12.85,0-.96-.78-1.73-1.73-1.73s-1.73.78-1.73,1.73c0,7.69-4.5,10.3-4.68,10.4-.56.3-.91.89-.91,1.53v70.39h3.47Z"/>
                <path class="cls-8" d="M57.14,84.77c.41.4.79.77,1.13,1.1v68.6h3.47v-69.32c0-.46-.18-.9-.5-1.22-.46-.46-1.02-1.02-1.67-1.64-5.2-5.08-17.39-16.97-15.37-25.27.87-3.57,4.43-6.34,10.6-8.22.92-.28,1.43-1.25,1.15-2.16-.28-.92-1.25-1.43-2.16-1.15-7.42,2.26-11.77,5.87-12.95,10.71-2.49,10.22,10.21,22.61,16.31,28.56Z"/>
              </g>
              <path class="cls-7" d="M54.82,61.74c-.96,0-1.73-.78-1.73-1.73V8.07c0-4.45,3.62-8.07,8.07-8.07s8.07,3.62,8.07,8.07v38.92c0,.96-.78,1.73-1.73,1.73s-1.73-.78-1.73-1.73V8.07c0-2.54-2.07-4.61-4.61-4.61s-4.61,2.07-4.61,4.61v51.93c0,.96-.78,1.73-1.73,1.73Z"/>
              <path class="cls-6" d="M80.18,48.68c-.96,0-1.73-.78-1.73-1.73v-7.48c0-2.54-2.07-4.61-4.61-4.61s-4.61,2.07-4.61,4.61v7.44c0,.96-.78,1.73-1.73,1.73s-1.73-.78-1.73-1.73v-7.44c0-4.45,3.62-8.07,8.07-8.07s8.07,3.62,8.07,8.07v7.48c0,.96-.78,1.73-1.73,1.73Z"/>
              <path class="cls-3" d="M92.86,51.11c-.96,0-1.73-.78-1.73-1.73v-8.84c0-2.54-2.07-4.61-4.61-4.61s-4.61,2.07-4.61,4.61v7.48c0,.96-.78,1.73-1.73,1.73s-1.73-.78-1.73-1.73v-7.48c0-4.45,3.62-8.07,8.07-8.07s8.07,3.62,8.07,8.07v8.84c0,.96-.78,1.73-1.73,1.73Z"/>
              <path class="cls-4" d="M105.54,73.88c-.96,0-1.73-.78-1.73-1.73v-29.29c0-2.54-2.07-4.61-4.61-4.61s-4.61,2.07-4.61,4.61v6.52c0,.96-.78,1.73-1.73,1.73s-1.73-.78-1.73-1.73v-6.52c0-4.45,3.62-8.07,8.07-8.07s8.07,3.62,8.07,8.07v29.29c0,.96-.78,1.73-1.73,1.73Z"/>
            </g>
            <path class="cls-2" d="M61.9,6.41c.9.45.95,1.25,1.07,3.63.12,2.38.42,4.7.42,5.89s-.83,2.32-1.67,2.14c-.83-.18-1.43-1.13-1.25-2.8.18-1.67.42-3.87.3-5.24-.12-1.37.06-4.17,1.13-3.63Z"/>
          </g>
          <g class="cls-12">
            <g>
              <g>
                <path class="cls-1" d="M43.99,193.56v-49.97c1.29-.98,4.02-3.71,4.02-9.24,0-.69-.56-1.25-1.25-1.25s-1.25.56-1.25,1.25c0,5.53-3.24,7.41-3.37,7.48-.4.22-.66.64-.66,1.1v50.63h2.49Z"/>
                <path class="cls-5" d="M11.96,143.43c.29.29.57.55.81.79v49.34h2.49v-49.86c0-.33-.13-.64-.36-.88-.33-.33-.74-.73-1.2-1.18-3.74-3.65-12.51-12.2-11.05-18.17.63-2.57,3.19-4.56,7.62-5.91.66-.2,1.03-.9.83-1.56-.2-.66-.9-1.03-1.56-.83-5.33,1.63-8.47,4.22-9.32,7.71-1.79,7.35,7.35,16.26,11.73,20.54Z"/>
              </g>
              <path class="cls-13" d="M10.29,126.86c-.69,0-1.25-.56-1.25-1.25v-37.35c0-3.2,2.6-5.81,5.81-5.81s5.81,2.6,5.81,5.81v28c0,.69-.56,1.25-1.25,1.25s-1.25-.56-1.25-1.25v-28c0-1.83-1.49-3.31-3.31-3.31s-3.31,1.49-3.31,3.31v37.35c0,.69-.56,1.25-1.25,1.25Z"/>
              <path class="cls-14" d="M28.53,117.47c-.69,0-1.25-.56-1.25-1.25v-5.38c0-1.83-1.49-3.31-3.31-3.31s-3.31,1.49-3.31,3.31v5.35c0,.69-.56,1.25-1.25,1.25s-1.25-.56-1.25-1.25v-5.35c0-3.2,2.6-5.81,5.81-5.81s5.81,2.6,5.81,5.81v5.38c0,.69-.56,1.25-1.25,1.25Z"/>
              <path class="cls-15" d="M37.65,119.22c-.69,0-1.25-.56-1.25-1.25v-6.36c0-1.83-1.49-3.31-3.31-3.31s-3.31,1.49-3.31,3.31v5.38c0,.69-.56,1.25-1.25,1.25s-1.25-.56-1.25-1.25v-5.38c0-3.2,2.6-5.81,5.81-5.81s5.81,2.6,5.81,5.81v6.36c0,.69-.56,1.25-1.25,1.25Z"/>
              <path class="cls-16" d="M46.77,135.6c-.69,0-1.25-.56-1.25-1.25v-21.06c0-1.83-1.49-3.31-3.31-3.31s-3.31,1.49-3.31,3.31v4.69c0,.69-.56,1.25-1.25,1.25s-1.25-.56-1.25-1.25v-4.69c0-3.2,2.6-5.81,5.81-5.81s5.81,2.6,5.81,5.81v21.06c0,.69-.56,1.25-1.25,1.25Z"/>
            </g>
            <path class="cls-18" d="M15.39,87.07c.65.33.68.9.77,2.61.09,1.71.3,3.38.3,4.24s-.6,1.67-1.2,1.54c-.6-.13-1.03-.81-.9-2.01.13-1.2.3-2.78.21-3.77-.09-.98.04-3,.81-2.61Z"/>
          </g>
          <g class="cls-12">
            <g>
              <g>
                <path class="cls-21" d="M152.59,193.56v-49.97c1.29-.98,4.02-3.71,4.02-9.24,0-.69-.56-1.25-1.25-1.25s-1.25.56-1.25,1.25c0,5.53-3.24,7.41-3.37,7.48-.4.22-.66.64-.66,1.1v50.63h2.49Z"/>
                <path class="cls-22" d="M120.56,143.43c.29.29.57.55.81.79v49.34h2.49v-49.86c0-.33-.13-.64-.36-.88-.33-.33-.74-.73-1.2-1.18-3.74-3.65-12.51-12.2-11.05-18.17.63-2.57,3.19-4.56,7.62-5.91.66-.2,1.03-.9.83-1.56-.2-.66-.9-1.03-1.56-.83-5.33,1.63-8.47,4.22-9.32,7.71-1.79,7.35,7.35,16.26,11.73,20.54Z"/>
              </g>
              <path class="cls-23" d="M118.89,126.86c-.69,0-1.25-.56-1.25-1.25v-37.35c0-3.2,2.6-5.81,5.81-5.81s5.81,2.6,5.81,5.81v28c0,.69-.56,1.25-1.25,1.25s-1.25-.56-1.25-1.25v-28c0-1.83-1.49-3.31-3.31-3.31s-3.31,1.49-3.31,3.31v37.35c0,.69-.56,1.25-1.25,1.25Z"/>
              <path class="cls-24" d="M137.13,117.47c-.69,0-1.25-.56-1.25-1.25v-5.38c0-1.83-1.49-3.31-3.31-3.31s-3.31,1.49-3.31,3.31v5.35c0,.69-.56,1.25-1.25,1.25s-1.25-.56-1.25-1.25v-5.35c0-3.2,2.6-5.81,5.81-5.81s5.81,2.6,5.81,5.81v5.38c0,.69-.56,1.25-1.25,1.25Z"/>
              <path class="cls-17" d="M146.25,119.22c-.69,0-1.25-.56-1.25-1.25v-6.36c0-1.83-1.49-3.31-3.31-3.31s-3.31,1.49-3.31,3.31v5.38c0,.69-.56,1.25-1.25,1.25s-1.25-.56-1.25-1.25v-5.38c0-3.2,2.6-5.81,5.81-5.81s5.81,2.6,5.81,5.81v6.36c0,.69-.56,1.25-1.25,1.25Z"/>
              <path class="cls-20" d="M155.37,135.6c-.69,0-1.25-.56-1.25-1.25v-21.06c0-1.83-1.49-3.31-3.31-3.31s-3.31,1.49-3.31,3.31v4.69c0,.69-.56,1.25-1.25,1.25s-1.25-.56-1.25-1.25v-4.69c0-3.2,2.6-5.81,5.81-5.81s5.81,2.6,5.81,5.81v21.06c0,.69-.56,1.25-1.25,1.25Z"/>
            </g>
            <path class="cls-19" d="M123.98,87.07c.65.33.69.9.77,2.61s.3,3.38.3,4.24-.6,1.67-1.2,1.54c-.6-.13-1.03-.81-.9-2.01.13-1.2.3-2.78.21-3.77-.09-.98.04-3,.81-2.61Z"/>
          </g>
          <g>
            <g>
              <path class="cls-26" d="M67.29,139.99l-4.37,27.04h-4.29l-4.37-27.04h3.58l2.94,20.64,2.94-20.64h3.58Z"/>
              <path class="cls-26" d="M73.92,167.03c-2.91,0-4.37-1.53-4.37-4.59v-17.81c0-3.09,1.44-4.63,4.33-4.63h3.46c2.89,0,4.33,1.54,4.33,4.63v17.81c0,3.06-1.46,4.59-4.37,4.59h-3.39ZM74.79,163.76h1.85c.95,0,1.43-.53,1.43-1.58v-17.33c0-1.05-.54-1.58-1.62-1.58h-1.7c-1.05,0-1.58.53-1.58,1.58v17.33c0,1.05.54,1.58,1.62,1.58Z"/>
              <path class="cls-26" d="M91.4,143.27v23.77h-3.62v-23.77h-3.46v-3.28h10.55v3.28h-3.46Z"/>
              <path class="cls-26" d="M97.68,167.03v-27.04h8.96v3.28h-5.35v8.21h4.75v3.28h-4.75v9h5.35v3.28h-8.96Z"/>
            </g>
            <g>
              <path class="cls-9" d="M56.15,170.75v25.47h-3.03v-25.47h3.03Z"/>
              <path class="cls-9" d="M71.45,196.22h-3.07v-.25l-5.04-15.3v15.55h-3.03v-25.47h3.03v.25l5.04,15.3v-15.55h3.07v25.47Z"/>
              <path class="cls-9" d="M89.52,183.49c0,1.77-.34,3.42-1.01,4.96-.67,1.54-1.58,2.89-2.73,4.04-1.15,1.15-2.5,2.06-4.04,2.73-1.54.67-3.2,1.01-4.96,1.01h-1.51v-25.47h1.51c1.76,0,3.42.34,4.96,1.01,1.54.67,2.89,1.58,4.04,2.73,1.15,1.15,2.06,2.49,2.73,4.04.67,1.54,1.01,3.19,1.01,4.96ZM78.3,193.07c1.15-.17,2.22-.54,3.22-1.11.99-.57,1.86-1.29,2.61-2.14.74-.85,1.32-1.82,1.75-2.9.42-1.08.63-2.22.63-3.43s-.21-2.35-.63-3.43c-.42-1.08-1-2.04-1.75-2.9-.74-.85-1.61-1.57-2.61-2.14-1-.57-2.07-.95-3.22-1.11v19.17Z"/>
              <path class="cls-9" d="M96.46,170.75v25.47h-3.03v-25.47h3.03Z"/>
              <path class="cls-9" d="M108.69,196.22v-5.25h-5.04v5.25h-3.03v-19.92c0-.76.15-1.47.44-2.14.29-.67.69-1.26,1.2-1.77.5-.5,1.09-.9,1.77-1.2.67-.29,1.39-.44,2.14-.44s1.48.15,2.16.44c.69.29,1.28.69,1.79,1.2.5.5.9,1.09,1.2,1.77.29.67.44,1.39.44,2.14v19.92h-3.07ZM108.69,187.9v-11.6c0-.7-.25-1.3-.74-1.79-.49-.49-1.09-.74-1.79-.74s-1.3.25-1.79.74c-.49.49-.74,1.09-.74,1.79v11.6h5.04Z"/>
            </g>
            <g>
              <path class="cls-25" d="M42.1,206.26h1.09v1.72c-.48.54-1.15.8-2,.8-.71,0-1.31-.24-1.79-.71-.48-.47-.72-1.07-.72-1.78s.25-1.32.74-1.8c.49-.48,1.09-.72,1.78-.72s1.3.23,1.81.69l-.56.81c-.22-.19-.42-.32-.6-.39-.18-.07-.38-.11-.59-.11-.41,0-.76.14-1.04.42-.28.28-.42.65-.42,1.1s.14.82.41,1.1c.27.27.59.41.97.41s.69-.07.93-.21v-1.33Z"/>
              <path class="cls-25" d="M49.17,203.89v.96h-2.41v1h2.17v.92h-2.17v1h2.49v.96h-3.57v-4.84h3.49Z"/>
              <path class="cls-25" d="M55.12,203.89h1.08v4.84h-1.08l-2.31-3.03v3.03h-1.08v-4.84h1.01l2.38,3.12v-3.12Z"/>
              <path class="cls-25" d="M62.41,203.89v.96h-2.41v1h2.17v.92h-2.17v1h2.49v.96h-3.57v-4.84h3.49Z"/>
              <path class="cls-25" d="M68.9,205.5c0,.78-.31,1.28-.92,1.5l1.23,1.73h-1.33l-1.07-1.54h-.75v1.54h-1.08v-4.84h1.84c.75,0,1.29.13,1.61.38.32.25.48.66.48,1.23ZM67.59,206.07c.13-.12.2-.31.2-.57s-.07-.44-.21-.54c-.14-.1-.38-.15-.73-.15h-.81v1.43h.79c.37,0,.62-.06.75-.18Z"/>
              <path class="cls-25" d="M74.98,208.73l-.45-1.05h-2.03l-.45,1.05h-1.15l2.09-4.84h1.05l2.09,4.84h-1.15ZM73.52,205.33l-.61,1.41h1.21l-.6-1.41Z"/>
              <path class="cls-25" d="M78.21,208.73v-4.84h1.08v3.88h2.06v.96h-3.14Z"/>
              <path class="cls-25" d="M90.51,203.89v.96h-2.41v1h2.17v.92h-2.17v1h2.49v.96h-3.57v-4.84h3.49Z"/>
              <path class="cls-25" d="M93.08,208.73v-4.84h1.08v3.88h2.06v.96h-3.14Z"/>
              <path class="cls-25" d="M102.02,203.89v.96h-2.41v1h2.17v.92h-2.17v1h2.49v.96h-3.57v-4.84h3.49Z"/>
              <path class="cls-25" d="M106.81,207.77c.53,0,.97-.21,1.3-.63l.69.71c-.55.62-1.2.93-1.94.93s-1.36-.24-1.84-.71c-.48-.47-.72-1.07-.72-1.78s.25-1.32.74-1.8c.49-.48,1.09-.72,1.8-.72.79,0,1.46.3,2,.91l-.67.76c-.34-.42-.77-.64-1.28-.64-.41,0-.75.13-1.04.4-.29.27-.43.62-.43,1.07s.14.81.41,1.08c.27.27.6.41.99.41Z"/>
              <path class="cls-25" d="M113.23,204.82v3.91h-1.08v-3.91h-1.37v-.93h3.82v.93h-1.37Z"/>
              <path class="cls-25" d="M116.92,203.89h1.08v4.84h-1.08v-4.84Z"/>
              <path class="cls-25" d="M124.79,208.06c-.49.48-1.09.72-1.81.72s-1.32-.24-1.81-.72c-.49-.48-.73-1.07-.73-1.78s.24-1.31.73-1.78c.49-.48,1.09-.72,1.81-.72s1.32.24,1.81.72c.49.48.73,1.07.73,1.78s-.25,1.31-.73,1.78ZM124.42,206.28c0-.43-.14-.8-.42-1.1-.28-.3-.62-.46-1.02-.46s-.74.15-1.02.46c-.28.3-.42.67-.42,1.1s.14.8.42,1.1c.28.3.62.45,1.02.45s.75-.15,1.02-.45c.28-.3.42-.67.42-1.1Z"/>
              <path class="cls-25" d="M131.34,203.89h1.08v4.84h-1.08l-2.31-3.03v3.03h-1.08v-4.84h1.01l2.38,3.12v-3.12Z"/>
            </g>
          </g>
        </g>
      </g>
    </g>
  </g>
</svg>