<?xml version="1.0" encoding="UTF-8"?>
<svg id="Layer_2" data-name="Layer 2" xmlns="http://www.w3.org/2000/svg" xmlns:xlink="http://www.w3.org/1999/xlink" viewBox="0 0 294.32 294.32">
  <defs>
    <style>
      .cls-1 {
        fill: url(#radial-gradient-7);
      }

      .cls-2 {
        fill: url(#radial-gradient-6);
      }

      .cls-3 {
        fill: url(#radial-gradient-5);
      }

      .cls-4 {
        fill: url(#radial-gradient-4);
      }

      .cls-5 {
        fill: url(#radial-gradient-9);
      }

      .cls-6 {
        fill: url(#radial-gradient-8);
      }

      .cls-7 {
        fill: url(#radial-gradient-3);
      }

      .cls-8 {
        fill: url(#radial-gradient-2);
      }

      .cls-9 {
        fill: url(#radial-gradient);
      }

      .cls-10 {
        fill: url(#radial-gradient-16);
      }

      .cls-11 {
        fill: url(#radial-gradient-12);
      }

      .cls-12 {
        fill: url(#radial-gradient-14);
      }

      .cls-13 {
        fill: url(#radial-gradient-13);
      }

      .cls-14 {
        fill: url(#radial-gradient-10);
      }

      .cls-15 {
        fill: url(#radial-gradient-17);
      }

      .cls-16 {
        fill: url(#radial-gradient-19);
      }

      .cls-17 {
        fill: url(#radial-gradient-11);
      }

      .cls-18 {
        fill: url(#radial-gradient-18);
      }

      .cls-19 {
        fill: url(#radial-gradient-15);
      }

      .cls-20 {
        fill: url(#radial-gradient-25);
      }

      .cls-21 {
        fill: url(#radial-gradient-35);
      }

      .cls-22 {
        fill: url(#radial-gradient-34);
      }

      .cls-23 {
        fill: url(#radial-gradient-22);
      }

      .cls-24 {
        fill: url(#radial-gradient-28);
      }

      .cls-25 {
        fill: url(#radial-gradient-23);
      }

      .cls-26 {
        fill: url(#radial-gradient-20);
      }

      .cls-27 {
        fill: url(#radial-gradient-24);
      }

      .cls-28 {
        fill: url(#radial-gradient-26);
      }

      .cls-29 {
        fill: url(#radial-gradient-29);
      }

      .cls-30 {
        fill: url(#radial-gradient-27);
      }

      .cls-31 {
        fill: url(#radial-gradient-21);
      }

      .cls-32 {
        fill: url(#radial-gradient-33);
      }

      .cls-33 {
        fill: url(#radial-gradient-32);
      }

      .cls-34 {
        fill: url(#radial-gradient-31);
      }

      .cls-35 {
        fill: url(#radial-gradient-30);
      }

      .cls-36 {
        fill: url(#radial-gradient-36);
      }
    </style>
    <radialGradient id="radial-gradient" cx="152.82" cy="151.94" fx="152.82" fy="151.94" r="159.94" gradientUnits="userSpaceOnUse">
      <stop offset=".08" stop-color="#fff080"/>
      <stop offset="1" stop-color="#fff080" stop-opacity="0"/>
    </radialGradient>
    <radialGradient id="radial-gradient-2" cx="152.82" cy="151.94" fx="152.82" fy="151.94" r="159.94" xlink:href="#radial-gradient"/>
    <radialGradient id="radial-gradient-3" cx="152.82" cy="151.94" fx="152.82" fy="151.94" r="159.94" xlink:href="#radial-gradient"/>
    <radialGradient id="radial-gradient-4" cx="152.82" cy="151.94" fx="152.82" fy="151.94" r="159.94" xlink:href="#radial-gradient"/>
    <radialGradient id="radial-gradient-5" cx="152.82" cy="151.94" fx="152.82" fy="151.94" r="159.94" xlink:href="#radial-gradient"/>
    <radialGradient id="radial-gradient-6" cx="152.82" cy="151.94" fx="152.82" fy="151.94" r="159.94" xlink:href="#radial-gradient"/>
    <radialGradient id="radial-gradient-7" cx="152.82" cy="151.94" fx="152.82" fy="151.94" r="159.94" xlink:href="#radial-gradient"/>
    <radialGradient id="radial-gradient-8" cx="152.82" cy="151.94" fx="152.82" fy="151.94" r="159.94" xlink:href="#radial-gradient"/>
    <radialGradient id="radial-gradient-9" cx="152.82" cy="151.94" fx="152.82" fy="151.94" r="159.94" xlink:href="#radial-gradient"/>
    <radialGradient id="radial-gradient-10" cx="152.82" cy="151.94" fx="152.82" fy="151.94" r="159.94" xlink:href="#radial-gradient"/>
    <radialGradient id="radial-gradient-11" cx="152.82" cy="151.94" fx="152.82" fy="151.94" r="159.94" xlink:href="#radial-gradient"/>
    <radialGradient id="radial-gradient-12" cx="152.82" cy="151.94" fx="152.82" fy="151.94" r="159.94" xlink:href="#radial-gradient"/>
    <radialGradient id="radial-gradient-13" cx="152.82" cy="151.94" fx="152.82" fy="151.94" r="159.94" xlink:href="#radial-gradient"/>
    <radialGradient id="radial-gradient-14" cx="152.82" cy="151.94" fx="152.82" fy="151.94" r="159.94" xlink:href="#radial-gradient"/>
    <radialGradient id="radial-gradient-15" cx="152.82" cy="151.94" fx="152.82" fy="151.94" r="159.94" xlink:href="#radial-gradient"/>
    <radialGradient id="radial-gradient-16" cx="152.82" cy="151.94" fx="152.82" fy="151.94" r="159.93" xlink:href="#radial-gradient"/>
    <radialGradient id="radial-gradient-17" cx="152.82" cy="151.94" fx="152.82" fy="151.94" r="159.94" xlink:href="#radial-gradient"/>
    <radialGradient id="radial-gradient-18" cx="152.82" cy="151.94" fx="152.82" fy="151.94" r="159.94" xlink:href="#radial-gradient"/>
    <radialGradient id="radial-gradient-19" cx="152.82" cy="151.94" fx="152.82" fy="151.94" r="159.94" xlink:href="#radial-gradient"/>
    <radialGradient id="radial-gradient-20" cx="152.82" cy="151.94" fx="152.82" fy="151.94" r="159.94" xlink:href="#radial-gradient"/>
    <radialGradient id="radial-gradient-21" cx="152.82" cy="151.94" fx="152.82" fy="151.94" r="159.94" xlink:href="#radial-gradient"/>
    <radialGradient id="radial-gradient-22" cx="152.82" cy="151.94" fx="152.82" fy="151.94" r="159.94" xlink:href="#radial-gradient"/>
    <radialGradient id="radial-gradient-23" cx="152.82" cy="151.94" fx="152.82" fy="151.94" r="159.94" xlink:href="#radial-gradient"/>
    <radialGradient id="radial-gradient-24" cx="152.82" cy="151.94" fx="152.82" fy="151.94" r="159.94" xlink:href="#radial-gradient"/>
    <radialGradient id="radial-gradient-25" cx="152.82" cy="151.94" fx="152.82" fy="151.94" r="159.93" xlink:href="#radial-gradient"/>
    <radialGradient id="radial-gradient-26" cx="152.82" cy="151.94" fx="152.82" fy="151.94" r="159.94" xlink:href="#radial-gradient"/>
    <radialGradient id="radial-gradient-27" cx="152.82" cy="151.94" fx="152.82" fy="151.94" r="159.94" xlink:href="#radial-gradient"/>
    <radialGradient id="radial-gradient-28" cx="152.82" cy="151.94" fx="152.82" fy="151.94" r="159.94" xlink:href="#radial-gradient"/>
    <radialGradient id="radial-gradient-29" cx="152.82" cy="151.94" fx="152.82" fy="151.94" r="159.94" xlink:href="#radial-gradient"/>
    <radialGradient id="radial-gradient-30" cx="152.82" cy="151.94" fx="152.82" fy="151.94" r="159.93" xlink:href="#radial-gradient"/>
    <radialGradient id="radial-gradient-31" cx="152.82" cy="151.94" fx="152.82" fy="151.94" r="159.94" xlink:href="#radial-gradient"/>
    <radialGradient id="radial-gradient-32" cx="152.82" cy="151.94" fx="152.82" fy="151.94" r="159.94" xlink:href="#radial-gradient"/>
    <radialGradient id="radial-gradient-33" cx="152.82" cy="151.94" fx="152.82" fy="151.94" r="159.93" xlink:href="#radial-gradient"/>
    <radialGradient id="radial-gradient-34" cx="152.82" cy="151.94" fx="152.82" fy="151.94" r="159.93" xlink:href="#radial-gradient"/>
    <radialGradient id="radial-gradient-35" cx="152.82" cy="151.94" fx="152.82" fy="151.94" r="159.94" xlink:href="#radial-gradient"/>
    <radialGradient id="radial-gradient-36" cx="152.82" cy="151.94" fx="152.82" fy="151.94" r="159.94" xlink:href="#radial-gradient"/>
  </defs>
  <g id="_ÎÓÈ_1" data-name="—ÎÓÈ_1">
    <g>
      <polygon class="cls-9" points="147.16 147.16 140.63 0 153.68 0 147.16 147.16"/>
      <polygon class="cls-8" points="147.16 147.16 166.29 1.1 179.14 3.37 147.16 147.16"/>
      <polygon class="cls-7" points="147.16 147.16 191.36 6.64 203.62 11.11 147.16 147.16"/>
      <polygon class="cls-4" points="147.16 147.16 215.09 16.45 226.39 22.98 147.16 147.16"/>
      <polygon class="cls-3" points="147.16 147.16 236.75 30.23 246.75 38.62 147.16 147.16"/>
      <polygon class="cls-2" points="147.16 147.16 255.7 47.57 264.08 57.57 147.16 147.16"/>
      <polygon class="cls-1" points="147.16 147.16 271.34 67.93 277.87 79.23 147.16 147.16"/>
      <polygon class="cls-6" points="147.16 147.16 283.21 90.7 287.68 102.96 147.16 147.16"/>
      <polygon class="cls-5" points="147.16 147.16 290.95 115.18 293.22 128.03 147.16 147.16"/>
      <polygon class="cls-14" points="147.16 147.16 294.32 140.63 294.32 153.69 147.16 147.16"/>
      <polygon class="cls-17" points="147.16 147.16 293.22 166.29 290.95 179.14 147.16 147.16"/>
      <polygon class="cls-11" points="147.16 147.16 287.68 191.36 283.21 203.62 147.16 147.16"/>
      <polygon class="cls-13" points="147.16 147.16 277.87 215.09 271.34 226.39 147.16 147.16"/>
      <polygon class="cls-12" points="147.16 147.16 264.09 236.75 255.7 246.75 147.16 147.16"/>
      <polygon class="cls-19" points="147.16 147.16 246.75 255.69 236.75 264.09 147.16 147.16"/>
      <polygon class="cls-10" points="147.16 147.16 226.39 271.34 215.09 277.86 147.16 147.16"/>
      <polygon class="cls-15" points="147.16 147.16 203.62 283.21 191.36 287.67 147.16 147.16"/>
      <polygon class="cls-18" points="147.16 147.16 179.14 290.95 166.29 293.22 147.16 147.16"/>
      <polygon class="cls-16" points="147.16 147.16 153.69 294.32 140.64 294.32 147.16 147.16"/>
      <polygon class="cls-26" points="147.16 147.16 128.03 293.22 115.18 290.95 147.16 147.16"/>
      <polygon class="cls-31" points="147.16 147.16 102.96 287.68 90.7 283.21 147.16 147.16"/>
      <polygon class="cls-23" points="147.16 147.16 79.23 277.87 67.93 271.34 147.16 147.16"/>
      <polygon class="cls-25" points="147.16 147.16 57.57 264.09 47.57 255.7 147.16 147.16"/>
      <polygon class="cls-27" points="147.16 147.16 38.62 246.75 30.24 236.75 147.16 147.16"/>
      <polygon class="cls-20" points="147.16 147.16 22.98 226.39 16.45 215.09 147.16 147.16"/>
      <polygon class="cls-28" points="147.16 147.16 11.11 203.63 6.64 191.36 147.16 147.16"/>
      <polygon class="cls-30" points="147.16 147.16 3.37 179.14 1.1 166.29 147.16 147.16"/>
      <polygon class="cls-24" points="147.16 147.16 0 153.69 0 140.64 147.16 147.16"/>
      <polygon class="cls-29" points="147.16 147.16 1.1 128.03 3.37 115.18 147.16 147.16"/>
      <polygon class="cls-35" points="147.16 147.16 6.64 102.96 11.11 90.7 147.16 147.16"/>
      <polygon class="cls-34" points="147.16 147.16 16.45 79.23 22.98 67.93 147.16 147.16"/>
      <polygon class="cls-33" points="147.16 147.16 30.23 57.57 38.62 47.57 147.16 147.16"/>
      <polygon class="cls-32" points="147.16 147.16 47.57 38.62 57.56 30.24 147.16 147.16"/>
      <polygon class="cls-22" points="147.16 147.16 67.93 22.98 79.23 16.46 147.16 147.16"/>
      <polygon class="cls-21" points="147.16 147.16 90.7 11.11 102.96 6.64 147.16 147.16"/>
      <polygon class="cls-36" points="147.16 147.16 115.18 3.37 128.03 1.1 147.16 147.16"/>
    </g>
  </g>
</svg>